<?xml version="1.0" standalone="no"?>
<!DOCTYPE svg PUBLIC "-//W3C//DTD SVG 20010904//EN"
 "http://www.w3.org/TR/2001/REC-SVG-20010904/DTD/svg10.dtd">
<svg version="1.0" xmlns="http://www.w3.org/2000/svg"
 width="1024.000000pt" height="1024.000000pt" viewBox="0 0 1024.000000 1024.000000"
 preserveAspectRatio="xMidYMid meet">
<metadata>
Created by potrace 1.16, written by Peter Selinger 2001-2019
</metadata>
<g transform="translate(0.000000,1024.000000) scale(0.100000,-0.100000)"
fill="#000000" stroke="none">
<path d="M2095 7950 c-67 -23 -141 -71 -137 -89 1 -7 -2 -10 -7 -7 -5 4 -67
-78 -137 -181 -234 -345 -358 -527 -404 -594 -94 -138 -150 -219 -261 -384
-64 -93 -146 -213 -183 -265 -106 -151 -131 -192 -144 -237 -9 -31 -12 -408
-12 -1562 0 -1517 0 -1521 21 -1576 35 -95 108 -154 233 -190 56 -16 305 -17
4015 -12 3708 4 3959 5 4011 22 112 35 214 115 275 215 70 115 65 -4 65 1715
0 1712 4 1607 -64 1721 -66 111 -180 194 -306 224 -45 11 -426 12 -2090 7
-1119 -4 -2237 -7 -2483 -7 l-448 0 -24 -25 c-32 -31 -32 -69 0 -100 l24 -25
2501 0 c2233 0 2504 -2 2531 -15 16 -9 35 -13 41 -9 7 4 8 3 4 -4 -4 -7 -3
-12 2 -12 23 0 102 -85 128 -137 l29 -58 0 -1555 0 -1555 -22 -47 c-30 -67
-104 -141 -166 -169 l-52 -24 -2470 -7 c-1358 -4 -3140 -7 -3960 -5 l-1490 2
-50 23 c-58 27 -77 45 -93 91 -16 44 -17 2977 -2 3032 6 20 21 52 35 70 14 19
41 59 61 89 21 30 40 57 44 60 5 4 45 63 75 112 6 8 41 60 79 114 38 55 98
142 133 194 36 52 70 101 77 107 9 10 28 -1 86 -48 41 -33 91 -77 111 -96 l37
-35 -24 -35 c-13 -20 -24 -46 -24 -58 0 -26 36 -75 55 -75 7 0 16 -15 19 -33
9 -46 40 -77 77 -77 19 0 43 -10 61 -25 17 -15 42 -25 60 -25 18 0 42 -10 60
-25 16 -14 36 -25 44 -25 21 0 74 29 74 40 0 16 17 12 56 -15 49 -33 79 -32
116 5 29 29 32 30 54 15 13 -8 40 -15 60 -15 31 0 37 4 47 30 8 20 21 33 37
36 55 12 79 27 89 55 6 16 8 36 4 44 -3 9 5 23 20 35 15 12 27 34 31 60 6 35
14 46 79 94 40 29 108 77 152 105 84 55 78 55 112 4 7 -10 38 -57 69 -105 32
-50 61 -85 67 -81 6 3 7 1 3 -5 -6 -11 183 -315 247 -395 59 -76 56 2 57
-1443 l0 -1331 25 -27 c45 -49 117 -24 130 46 3 18 5 627 3 1353 l-3 1320 -23
56 c-12 31 -37 76 -54 100 -18 24 -65 94 -106 154 -40 61 -78 109 -83 107 -6
-1 -8 2 -4 8 3 5 -33 69 -81 142 -47 73 -108 167 -135 208 -115 177 -176 272
-210 322 -40 60 -249 380 -264 406 -5 9 -22 33 -37 53 -16 20 -28 41 -28 46 0
6 -11 22 -24 36 -13 14 -22 28 -20 30 10 9 -82 81 -133 104 -76 35 -187 40
-268 13z m181 -145 c62 -18 90 -44 138 -122 21 -35 42 -63 48 -63 6 0 9 -3 5
-6 -5 -6 51 -98 140 -228 27 -39 56 -86 67 -105 l19 -35 -42 -37 c-23 -21 -73
-59 -111 -85 l-70 -47 -82 18 c-46 10 -131 20 -190 23 -102 4 -110 3 -159 -23
-77 -40 -106 -33 -224 55 -53 40 -99 79 -102 86 -2 7 12 36 31 64 20 29 33 57
29 64 -3 6 -3 8 2 4 10 -9 37 24 142 182 49 74 104 156 121 181 28 41 59 62
122 83 28 9 66 6 116 -9z m537 -739 c48 -74 87 -137 87 -140 0 -2 -55 -43
-122 -90 -68 -47 -137 -97 -154 -111 l-31 -25 -74 51 c-41 28 -75 52 -77 54
-2 2 12 11 32 20 39 19 43 27 23 43 -10 8 -23 8 -49 0 -55 -17 -97 -3 -185 62
-119 87 -129 87 -192 -1 -43 -61 -92 -84 -130 -60 -20 13 98 174 140 191 42
18 211 7 313 -19 l79 -21 81 54 c45 30 99 70 121 90 22 19 42 35 45 36 3 0 45
-60 93 -134z m-1027 44 c64 -48 118 -82 139 -86 19 -3 35 -8 35 -11 0 -2 -18
-30 -40 -60 -22 -31 -40 -67 -40 -80 0 -35 54 -65 106 -60 51 5 82 28 125 90
17 26 34 47 36 47 2 0 59 -39 126 -87 67 -49 161 -115 210 -147 68 -47 87 -65
87 -83 0 -46 -29 -38 -145 42 -96 66 -117 76 -130 65 -8 -7 -15 -16 -15 -19 0
-4 54 -44 119 -89 66 -45 121 -88 124 -94 6 -19 -11 -48 -29 -48 -15 0 -137
78 -207 133 -31 24 -40 27 -52 17 -8 -7 -15 -18 -15 -24 0 -6 43 -40 96 -76
108 -73 117 -81 108 -103 -12 -32 -37 -24 -139 46 -154 105 -154 105 -165 87
-16 -24 -13 -28 59 -76 74 -49 88 -68 70 -90 -16 -20 -26 -18 -75 13 -27 18
-45 38 -51 57 -5 19 -20 36 -36 44 -18 9 -27 21 -27 37 0 23 -34 65 -52 65 -4
0 -8 15 -8 34 0 54 -35 89 -89 88 -29 -1 -53 6 -72 20 -25 19 -33 20 -65 10
-36 -11 -38 -10 -91 38 -30 27 -81 71 -114 96 -57 45 -59 48 -44 70 8 13 12
31 9 41 -5 14 -4 15 4 4 7 -10 24 8 71 78 34 50 64 91 67 91 3 0 52 -36 110
-80z m164 -446 c0 -8 -25 -50 -56 -94 -42 -61 -61 -80 -79 -80 -42 0 -39 30
11 101 68 99 81 111 104 99 11 -6 20 -17 20 -26z"/>
<path d="M4010 7130 c0 -103 1 -110 20 -110 17 0 20 7 20 50 0 45 2 50 23 50
49 0 83 49 59 87 -10 16 -57 33 -93 33 l-29 0 0 -110z"/>
<path d="M7350 7200 c0 -37 -2 -40 -19 -30 -66 35 -134 -39 -105 -115 10 -25
62 -48 93 -39 14 4 36 6 48 5 21 -2 22 1 22 108 0 104 -1 111 -19 111 -17 0
-20 -7 -20 -40z"/>
<path d="M4204 7156 c-75 -64 6 -177 94 -132 50 26 58 86 17 130 -31 33 -74
34 -111 2z"/>
<path d="M4848 7150 c-25 -26 -29 -36 -24 -63 12 -64 84 -97 135 -61 17 13 20
19 10 25 -7 4 -21 3 -30 -2 -26 -13 -45 -11 -63 7 -28 27 -18 34 49 34 59 0
65 2 65 20 0 12 -11 32 -25 45 -34 35 -78 33 -117 -5z"/>
<path d="M5275 7155 c-48 -47 -25 -128 40 -141 41 -7 99 21 74 37 -8 5 -18 4
-23 -1 -23 -23 -76 -4 -76 27 0 9 18 13 65 13 76 0 83 13 36 61 -38 37 -82 39
-116 4z"/>
<path d="M5746 7157 c-55 -56 -15 -157 57 -143 18 4 44 6 60 6 l27 0 0 75 0
75 -27 0 c-16 0 -42 2 -60 6 -26 5 -37 1 -57 -19z"/>
<path d="M6896 7159 c-57 -45 -15 -161 52 -145 15 4 39 7 55 6 l27 0 0 74 c0
56 -4 75 -15 79 -8 4 -17 2 -20 -3 -4 -7 -13 -6 -25 0 -28 15 -44 12 -74 -11z"/>
<path d="M7455 7157 c-75 -64 8 -184 96 -137 32 18 23 33 -16 26 -39 -8 -75 7
-75 29 0 12 15 15 65 15 57 0 65 2 65 19 0 30 -32 61 -71 67 -28 5 -41 1 -64
-19z"/>
<path d="M6040 4825 l0 -1375 130 0 c97 0 130 3 132 13 0 6 2 17 3 22 2 6 3
288 4 628 l1 617 78 0 77 0 55 -72 c30 -40 93 -122 140 -181 47 -60 112 -144
145 -186 192 -247 292 -377 310 -400 29 -39 145 -187 252 -323 l93 -118 160 0
c88 0 160 3 160 6 0 9 -36 59 -150 204 -58 74 -160 204 -226 289 -65 85 -228
294 -360 465 l-242 311 47 2 c340 18 531 77 678 208 157 141 231 334 220 574
-9 202 -62 325 -197 462 -73 73 -100 94 -180 132 -174 83 -305 97 -917 97
l-413 0 0 -1375z m917 1105 c67 -5 143 -15 170 -21 135 -34 235 -115 298 -242
31 -62 37 -86 42 -162 9 -146 -24 -247 -116 -347 -64 -70 -159 -121 -271 -145
-72 -15 -135 -18 -428 -18 l-342 0 0 468 c0 257 0 469 0 472 0 9 521 5 647 -5z"/>
<path d="M1234 5840 c-26 -10 -54 -48 -54 -72 0 -33 23 -67 52 -77 42 -15
1866 -15 1904 -1 61 23 72 84 25 131 l-30 29 -938 -1 c-516 0 -948 -4 -959 -9z"/>
<path d="M2132 4801 c-74 -35 -100 -129 -55 -199 36 -58 129 -79 189 -43 60
36 81 127 44 188 -40 66 -108 86 -178 54z"/>
<path d="M1899 4629 c-28 -28 -19 -49 62 -146 38 -45 74 -94 79 -108 6 -15 10
-140 10 -294 0 -194 3 -270 12 -279 16 -16 75 -15 85 1 4 6 10 55 13 107 5 95
5 95 33 98 l27 3 0 -85 c0 -111 11 -136 61 -136 58 0 63 29 56 282 -8 273 9
342 107 443 25 25 48 55 51 66 10 31 -20 69 -54 69 -24 0 -41 -15 -99 -84
-101 -119 -97 -116 -152 -116 l-49 0 -77 93 c-43 50 -83 95 -88 99 -20 14 -56
8 -77 -13z"/>
</g>
</svg>
